<?xml version="1.0" standalone="no"?>
<!DOCTYPE svg PUBLIC "-//W3C//DTD SVG 20010904//EN"
 "http://www.w3.org/TR/2001/REC-SVG-20010904/DTD/svg10.dtd">
<svg version="1.0" xmlns="http://www.w3.org/2000/svg"
 width="1200.000000pt" height="1200.000000pt" viewBox="0 0 1200.000000 1200.000000"
 preserveAspectRatio="xMidYMid meet">
<metadata>
Created by potrace 1.14, written by Peter Selinger 2001-2017
</metadata>
<g transform="translate(0.000000,1200.000000) scale(0.100000,-0.100000)"
fill="#000000" stroke="none">
<path d="M9775 9353 c-260 -13 -834 -70 -955 -94 -62 -13 -129 -44 -257 -122
-49 -30 -134 -78 -188 -108 l-100 -53 38 45 c55 64 97 130 97 152 0 23 13 25
-290 -49 -124 -31 -243 -64 -265 -74 -22 -10 -92 -59 -155 -110 -179 -143
-178 -142 -115 -55 51 71 74 119 63 130 -8 8 -182 -43 -419 -124 -282 -96
-389 -140 -470 -192 -69 -45 -208 -183 -347 -346 -52 -62 -97 -111 -99 -109
-2 1 24 59 57 127 62 130 98 243 87 273 -6 15 -14 17 -45 11 -99 -18 -485
-191 -532 -238 -14 -14 -45 -60 -70 -104 -41 -73 -120 -192 -120 -181 0 2 18
46 40 97 35 81 51 151 34 151 -9 0 -507 -319 -676 -432 -81 -55 -161 -116
-178 -136 -39 -46 -232 -431 -290 -575 -23 -59 -44 -106 -46 -104 -5 4 140
419 185 531 18 43 30 83 29 88 -4 11 -629 -403 -786 -521 -122 -91 -157 -135
-190 -236 -23 -68 -47 -222 -58 -370 -8 -121 -16 -105 -38 80 -9 72 -20 146
-26 165 -16 55 -47 100 -70 100 -35 0 -119 -49 -214 -124 -102 -82 -441 -419
-463 -461 -11 -19 -18 -104 -26 -308 -13 -324 -16 -326 -62 -21 -14 98 -30
185 -35 193 -7 12 -15 3 -35 -41 -64 -140 -114 -449 -131 -808 -5 -122 -3
-163 14 -260 11 -63 23 -149 27 -190 4 -41 18 -135 31 -208 25 -133 25 -134 6
-165 -11 -18 -69 -113 -129 -212 -60 -99 -129 -215 -153 -257 -24 -42 -47 -75
-51 -72 -4 2 -27 -30 -51 -71 -43 -76 -46 -78 -90 -60 -12 5 -25 -2 -43 -21
-37 -40 -43 -73 -17 -95 12 -9 22 -20 22 -23 0 -3 -90 -110 -200 -238 -111
-128 -203 -244 -207 -257 -3 -14 1 -53 10 -87 31 -116 17 -220 -49 -363 -19
-41 -34 -75 -34 -77 0 -2 9 -8 19 -14 17 -9 36 17 186 255 153 244 166 268
157 294 -29 83 87 148 128 71 19 -36 -25 -100 -69 -100 -23 0 -45 -30 -190
-264 -91 -145 -166 -271 -167 -280 -2 -14 28 -16 294 -16 346 0 1560 -24 2132
-42 217 -7 755 -12 1195 -13 804 0 950 4 1325 41 595 57 954 177 1080 359 86
125 110 295 57 409 -100 217 -380 359 -842 428 -141 21 -619 18 -765 -5 -228
-36 -395 -84 -540 -157 -191 -96 -279 -204 -250 -308 41 -156 330 -264 740
-279 422 -15 944 81 1035 189 34 40 31 65 -10 103 -50 48 -210 95 -371 110
-56 5 -54 4 51 -28 200 -61 295 -103 295 -133 0 -66 -532 -164 -897 -164 -389
0 -753 116 -753 240 0 75 158 180 370 248 200 64 409 92 688 92 278 0 503 -30
714 -96 226 -70 389 -189 423 -308 44 -151 -46 -312 -218 -391 -237 -109 -591
-170 -1187 -205 -290 -17 -1153 -23 -1685 -11 -1474 32 -1763 35 -2048 23
-297 -13 -496 -31 -670 -60 l-105 -18 19 27 c36 51 132 142 190 179 35 22 87
45 130 55 39 10 82 27 95 39 15 13 68 124 142 296 l118 275 41 -3 c37 -3 42 0
62 31 28 45 27 71 -3 87 l-25 13 50 74 c44 65 49 76 35 86 -14 10 9 50 169
289 l184 277 43 5 c24 3 111 11 193 17 83 5 248 19 368 30 120 10 228 19 240
19 40 0 3 17 -168 75 -93 32 -183 64 -200 72 -34 14 -62 16 262 -13 100 -9
228 -14 285 -12 100 4 107 6 224 60 213 97 211 95 653 573 l241 260 -42 3
c-41 4 -213 -10 -533 -43 -77 -8 -174 -16 -215 -19 l-75 -5 95 19 c52 10 163
30 245 44 238 40 556 103 603 120 61 22 117 64 203 153 91 93 209 230 209 242
0 9 -156 21 -286 21 -118 0 -365 12 -360 17 2 3 66 9 143 14 396 26 571 40
603 49 24 6 79 48 160 121 69 61 175 152 235 202 61 49 111 93 113 96 1 4 -53
30 -120 57 l-123 49 190 5 c149 4 197 9 220 22 107 58 562 444 544 462 -16 16
-145 37 -317 51 -108 9 -198 18 -200 19 -1 2 138 6 310 8 203 4 324 10 343 17
34 14 52 25 540 343 198 130 379 245 402 257 23 11 44 25 47 29 6 10 -129 21
-288 23 -127 2 -125 3 124 24 256 23 330 37 420 81 107 53 753 488 773 521 7
11 -18 9 -417 -38 -186 -22 -340 -38 -342 -36 -5 5 75 18 461 77 283 44 340
57 426 101 65 32 513 328 507 334 -2 3 -82 -7 -178 -21 -95 -13 -178 -23 -184
-21 -5 2 80 21 190 42 130 25 215 46 244 62 60 31 212 127 288 182 67 47 111
106 92 125 -21 21 -262 30 -485 19z m-1115 -499 c-673 -250 -850 -318 -1045
-404 -1078 -479 -1534 -757 -2334 -1423 -372 -310 -512 -441 -941 -873 -436
-439 -613 -629 -842 -903 -263 -314 -562 -735 -815 -1147 l-99 -161 -42 21
-41 21 27 50 c69 126 315 496 578 873 177 253 654 781 1223 1356 369 372 485
476 961 857 643 515 1070 795 1645 1080 307 151 584 271 935 402 404 151 901
316 950 316 8 0 -64 -29 -160 -65z m-283 -410 c-3 -3 -12 -4 -19 -1 -8 3 -5 6
6 6 11 1 17 -2 13 -5z m-5883 -4730 c72 -20 135 -40 139 -44 13 -12 -11 -50
-31 -50 -17 0 -264 129 -248 130 5 0 68 -16 140 -36z m-9 -104 c7 -12 -3 -41
-126 -351 -74 -188 -93 -228 -115 -237 -30 -14 -67 -16 -62 -3 31 85 275 601
284 601 7 0 16 -5 19 -10z"/>
</g>
</svg>
